# xmcd
#
# Track frame offsets: 
#        183
#        17428
#        39885
#
# Disc length: 754 seconds
#
# Revision: 5
# Processed by: cddbd v1.5.2PL0 Copyright (c) Steve Scherf et al.
# Submitted via: ExactAudioCopy v0.99pb5
#
DISCID=1202f003
DTITLE=Plutonic - Tubular Bells
DYEAR=1990
DGENRE=Trance
TTITLE0=Tubular Bells
TTITLE1=Tubular Bells (Exteneded Version)
TTITLE2=Amen
EXTD=
EXTT0=(Radio Edit)
EXTT1=
EXTT2=
PLAYORDER=
